<?xml version="1.0" standalone="no"?>
<!DOCTYPE svg PUBLIC "-//W3C//DTD SVG 20010904//EN"
 "http://www.w3.org/TR/2001/REC-SVG-20010904/DTD/svg10.dtd">
<svg version="1.0" xmlns="http://www.w3.org/2000/svg"
 width="1080.000000pt" height="1080.000000pt" viewBox="0 0 1080.000000 1080.000000"
 preserveAspectRatio="xMidYMid meet">

<g transform="translate(0.000000,1080.000000) scale(0.100000,-0.100000)"
fill="#000000" stroke="none">
<path d="M4800 9324 c-744 -26 -1295 -88 -1597 -180 -141 -43 -202 -73 -263
-130 -79 -74 -93 -120 -94 -303 l-1 -153 -63 -23 c-91 -33 -170 -98 -207 -170
-29 -56 -30 -64 -35 -230 l-5 -172 -60 -67 c-33 -37 -73 -88 -90 -113 -27 -41
-30 -55 -30 -124 0 -63 4 -83 21 -106 29 -39 109 -81 249 -129 l120 -41 37
-294 c34 -268 107 -868 159 -1309 11 -96 23 -178 25 -182 2 -3 0 -9 -6 -13 -6
-3 -20 -25 -31 -48 -19 -36 -21 -53 -16 -141 3 -56 17 -200 31 -321 26 -218
86 -734 125 -1080 35 -302 41 -345 62 -396 11 -30 25 -109 34 -197 9 -81 29
-246 45 -367 16 -121 40 -310 54 -420 40 -317 105 -830 121 -944 22 -152 22
-151 -20 -151 -46 0 -238 -41 -400 -85 -325 -90 -484 -193 -519 -338 -26 -111
111 -238 354 -327 216 -79 525 -149 880 -199 326 -46 349 -49 720 -78 324 -25
384 -27 965 -27 546 0 656 2 925 22 428 31 502 39 785 78 422 59 681 116 915
202 253 93 362 185 364 307 1 104 -98 207 -271 280 -108 45 -384 116 -563 146
-74 12 -136 23 -138 24 -2 1 2 36 7 76 15 112 97 753 131 1019 60 465 101 747
126 865 39 183 42 201 75 485 69 604 148 1218 169 1332 24 122 9 227 -38 280
-17 20 -21 -14 104 983 83 666 102 807 112 816 4 4 52 21 106 39 137 45 247
102 269 138 12 21 17 51 17 99 0 91 -28 148 -118 242 l-71 74 0 159 c0 87 -5
176 -11 197 -22 84 -108 162 -229 207 l-56 21 -5 169 c-5 147 -9 174 -27 210
-106 201 -518 296 -1598 370 -216 15 -1284 27 -1545 18z m1450 -138 c1081 -66
1527 -153 1598 -314 12 -28 17 -82 21 -225 6 -203 8 -207 63 -207 40 0 134
-38 169 -67 57 -49 63 -71 69 -275 l5 -187 85 -92 c118 -126 125 -176 33 -222
-103 -52 -240 -84 -593 -136 -688 -101 -1431 -137 -2615 -128 -982 8 -1461 39
-2060 133 -243 38 -466 96 -530 138 -56 37 -41 121 33 188 27 24 65 65 85 91
l37 49 0 156 c0 176 8 218 51 267 33 37 119 75 172 75 57 0 69 17 78 111 4 46
8 134 9 194 1 136 17 173 100 223 210 126 758 201 1780 242 295 12 1112 4
1410 -14z m1690 -1835 c0 -5 -33 -272 -74 -593 -41 -321 -89 -700 -106 -843
-42 -362 -43 -362 -75 -393 l-27 -27 6 85 c13 162 48 496 72 685 14 105 40
314 59 465 37 290 73 560 81 597 4 20 18 29 52 32 6 0 12 -3 12 -8z m-4984
-17 c89 -20 683 -94 762 -94 35 0 61 -4 58 -9 -3 -5 35 -10 87 -11 50 -1 200
-7 332 -14 l240 -13 -155 -3 -155 -3 210 -13 c116 -7 264 -13 330 -13 413 1
717 -4 695 -12 -23 -8 117 -6 415 5 l110 5 -120 -10 c-158 -12 -201 -27 -70
-23 55 1 85 0 68 -2 -18 -3 -33 -9 -33 -14 0 -5 8 -7 18 -6 9 2 157 6 327 9
334 6 324 -6 -15 -18 -113 -4 -236 -11 -275 -16 -58 -6 -50 -7 45 -4 63 3 207
7 320 10 113 3 261 7 330 9 95 3 112 2 70 -5 -30 -5 -108 -10 -172 -11 -65 -1
-114 -6 -110 -10 4 -4 70 -9 147 -11 105 -2 78 -4 -105 -6 -164 -3 -225 -6
-185 -11 33 -4 139 -5 235 -2 96 3 172 2 169 -2 -4 -4 -60 -11 -125 -15 l-119
-8 87 -2 c48 0 89 -4 91 -9 3 -4 -7 -7 -21 -8 -191 -3 -223 -5 -217 -15 5 -7
-23 -9 -91 -5 -96 5 -97 5 -34 -6 47 -7 146 -7 353 2 159 6 291 10 293 8 2 -3
-69 -12 -159 -22 -89 -9 -198 -21 -242 -27 -44 -5 -138 -14 -210 -19 -71 -6
-188 -15 -260 -20 -185 -14 -185 -19 0 -16 104 2 139 1 100 -4 -41 -5 -17 -7
75 -4 74 2 182 9 238 15 60 6 128 8 160 3 54 -7 45 -9 -168 -40 -124 -18 -245
-33 -270 -33 -25 -1 -52 -6 -60 -12 -12 -8 -11 -9 5 -5 11 3 90 8 175 10 86 3
162 7 170 10 8 3 92 10 185 16 94 6 197 17 230 25 33 8 121 22 195 30 74 9
209 30 300 46 190 33 190 33 190 15 0 -14 -158 -48 -375 -80 -55 -9 -181 -29
-280 -45 -165 -27 -357 -54 -685 -97 -69 -9 -177 -20 -240 -24 -102 -8 -95 -8
60 -4 96 2 193 8 215 13 22 5 83 12 135 15 120 7 284 28 525 65 105 16 235 35
290 41 55 6 156 20 224 31 68 11 126 18 128 16 2 -2 1 -11 -2 -19 -6 -15 -16
-17 -320 -63 -88 -13 -216 -35 -285 -49 -151 -30 -633 -102 -747 -112 -46 -3
-80 -10 -77 -15 3 -5 22 -7 42 -5 20 3 80 7 132 11 52 3 151 15 220 25 69 10
179 24 245 30 167 16 763 97 778 107 5 3 6 -12 3 -33 -3 -22 -17 -159 -31
-307 -26 -265 -41 -398 -44 -364 -1 13 -7 16 -23 12 -107 -24 -291 -61 -428
-85 -203 -36 -322 -61 -316 -67 2 -3 61 7 130 21 69 14 138 26 153 25 32 -1
-99 -32 -232 -54 -121 -21 -126 -25 -25 -19 100 7 309 35 505 70 189 34 223
43 228 63 3 9 5 0 6 -20 l1 -35 -325 -64 c-310 -60 -410 -86 -234 -61 44 7 83
10 86 8 2 -3 -20 -8 -51 -12 -35 -5 -53 -11 -49 -18 4 -7 -5 -8 -25 -4 -18 4
-32 3 -32 -2 0 -5 -37 -12 -82 -17 l-83 -9 59 -3 c82 -4 297 23 506 64 211 42
210 41 210 61 0 9 3 14 6 10 3 -3 -2 -102 -12 -221 l-18 -215 -86 -15 c-154
-29 -434 -66 -505 -67 -58 -2 -63 -3 -30 -8 l40 -6 -56 -7 -56 -6 -104 101
c-125 122 -235 198 -412 282 -156 74 -233 99 -385 126 -139 23 -373 26 -513 4
-112 -17 -289 -71 -404 -125 -177 -82 -419 -266 -542 -411 -80 -93 -65 -90
-304 -59 -288 38 -676 120 -780 164 -34 14 -37 19 -42 68 -7 59 -126 1052
-157 1308 -12 91 -29 229 -40 307 -23 162 -24 183 -11 183 6 0 40 -7 77 -16z
m3336 -184 c-29 -4 -124 -11 -210 -14 -86 -4 -186 -9 -222 -12 -46 -4 -62 -3
-55 5 10 10 312 27 480 28 l60 1 -53 -8z m166 -17 c-16 -2 -40 -2 -55 0 -16 2
-3 4 27 4 30 0 43 -2 28 -4z m1296 -45 c14 -20 14 -22 -7 -33 -16 -7 -22 -20
-24 -45 -1 -19 2 -37 7 -40 5 -3 2 -20 -7 -38 -13 -27 -13 -34 -2 -49 10 -12
10 -14 1 -9 -20 12 -28 -25 -8 -39 12 -9 14 -15 6 -20 -6 -4 -9 -14 -5 -22 3
-9 -3 -25 -12 -36 -13 -15 -15 -21 -5 -24 15 -6 16 -45 0 -61 -9 -9 -9 -15 0
-24 16 -16 15 -28 -3 -28 -8 0 -15 -2 -15 -4 0 -2 -3 -11 -6 -20 -4 -11 0 -16
12 -16 11 0 15 -3 9 -8 -11 -7 -35 -78 -35 -101 0 -6 8 -11 17 -11 14 0 13 -3
-5 -20 -13 -12 -22 -33 -22 -50 0 -37 0 -40 -11 -67 -7 -20 -5 -23 14 -23 20
-1 20 -2 5 -11 -22 -12 -24 -33 -3 -25 8 3 15 1 15 -4 0 -6 -9 -10 -20 -10
-11 0 -20 -4 -20 -10 0 -5 5 -10 10 -10 17 0 11 -27 -7 -35 -16 -6 -15 -8 7
-20 24 -14 24 -14 4 -15 -17 0 -23 -7 -26 -34 -2 -19 -1 -43 3 -53 3 -10 0
-27 -8 -39 -8 -13 -12 -39 -10 -67 3 -28 0 -48 -7 -50 -7 -3 -7 -9 3 -20 10
-13 11 -20 2 -31 -7 -8 -14 -36 -16 -63 -3 -26 -7 -61 -9 -78 -3 -16 0 -35 5
-41 7 -8 6 -15 -1 -19 -7 -5 -9 -20 -6 -40 4 -20 2 -36 -4 -40 -8 -5 -9 -24
-5 -56 4 -27 3 -49 -2 -49 -4 0 -18 -3 -29 -6 -20 -5 -21 -3 -18 38 41 452
164 1532 180 1586 6 20 42 14 58 -10z m-2109 -1260 c291 -57 532 -184 736
-387 124 -125 204 -241 265 -384 220 -519 113 -1169 -262 -1589 -209 -233
-483 -373 -828 -424 -308 -45 -688 60 -953 262 -96 73 -228 214 -293 311 -120
180 -212 417 -245 633 -19 122 -19 360 0 475 32 197 111 398 216 550 140 203
371 383 617 480 255 101 491 124 747 73z m1612 -414 c-13 -13 -297 -55 -431
-64 -87 -5 -164 -14 -171 -20 -8 -7 -19 -2 -34 14 l-23 24 54 6 c29 3 114 13
188 21 74 8 197 24 273 36 135 21 137 22 139 48 1 14 3 6 5 -18 3 -23 2 -45 0
-47z m523 7 c0 -8 -6 -11 -15 -7 -8 3 -26 1 -40 -4 -37 -14 -32 6 7 30 33 20
47 14 48 -19z m-4669 5 c57 -26 57 -29 -2 -26 -28 1 -41 -4 -53 -22 -16 -22
-16 -21 -16 25 0 26 4 47 9 47 5 0 33 -11 62 -24z m-41 -131 c10 -11 20 -29
24 -40 7 -25 106 -893 141 -1240 14 -143 32 -283 40 -310 17 -60 71 -117 131
-138 76 -27 389 -96 549 -122 88 -14 174 -28 192 -30 17 -3 42 -14 55 -25 l23
-19 -45 5 c-225 25 -612 97 -744 140 -124 40 -191 96 -210 177 -6 27 -64 517
-131 1127 -20 173 -40 342 -45 375 -10 63 -12 161 -3 135 3 -8 13 -24 23 -35z
m4690 -84 c-20 -93 -64 -433 -140 -1101 -50 -442 -52 -451 -98 -502 -49 -54
-92 -74 -235 -108 -139 -32 -198 -40 -204 -24 -2 6 55 24 139 43 189 44 242
65 274 106 36 48 40 68 74 390 33 315 125 1105 140 1196 6 40 16 64 34 82 14
15 27 32 27 39 1 7 4 4 6 -8 2 -11 -5 -62 -17 -113z m-4386 -1801 c180 -71
465 -125 854 -161 130 -12 135 -13 177 -48 30 -24 40 -38 32 -43 -7 -5 -2 -8
14 -8 14 0 36 -9 49 -20 12 -11 31 -22 41 -25 11 -4 19 -10 19 -16 0 -5 23
-20 52 -35 37 -19 47 -28 37 -35 -10 -6 -9 -8 6 -7 11 0 67 -22 125 -50 368
-176 790 -192 1160 -44 63 25 117 48 120 52 3 3 29 18 59 33 29 15 84 48 123
74 46 31 86 49 116 54 26 4 92 14 146 23 95 15 143 19 121 10 -6 -2 -51 -11
-100 -19 l-90 -15 90 4 c105 5 94 0 -42 -19 -79 -10 -88 -13 -47 -14 28 -1
101 8 164 19 131 24 159 21 38 -4 -46 -9 -94 -19 -107 -22 -13 -3 -21 -7 -19
-9 2 -3 42 2 89 10 46 8 122 19 169 25 47 6 99 12 115 15 76 13 -89 -37 -187
-56 -69 -14 -104 -25 -93 -29 13 -5 3 -10 -36 -18 -30 -7 -90 -21 -134 -32
-73 -18 -75 -19 -25 -14 30 4 100 15 154 25 55 10 101 17 104 15 6 -6 -129
-46 -228 -67 -47 -9 -77 -18 -67 -18 35 -2 381 59 490 86 99 24 143 25 107 3
-27 -17 -343 -89 -460 -105 -122 -17 -162 -26 -94 -22 35 2 40 0 36 -15 -2
-10 -12 -18 -21 -18 -14 0 -14 2 -1 10 22 14 4 12 -75 -9 -52 -14 -62 -19 -38
-20 17 -1 40 -4 50 -7 15 -5 16 -4 3 6 -12 9 -10 11 11 6 24 -5 114 6 163 21
10 3 16 1 13 -4 -3 -5 -40 -18 -81 -28 -42 -10 -74 -20 -72 -22 6 -6 466 89
549 113 10 3 17 0 17 -9 0 -23 -275 -100 -510 -143 -80 -14 -147 -28 -149 -30
-2 -2 18 -4 45 -5 l49 -1 -60 -13 c-135 -30 -218 -54 -194 -54 26 -1 191 32
577 114 118 25 215 45 217 45 2 0 6 8 9 18 2 9 4 2 3 -17 l-2 -34 -125 -32
c-69 -17 -169 -46 -224 -64 -84 -27 -219 -58 -581 -134 -134 -28 -15 -17 192
19 245 42 655 128 721 152 28 10 9 -30 -20 -42 -58 -24 -497 -134 -723 -181
-121 -25 -224 -47 -230 -50 -50 -24 398 49 705 115 52 11 129 27 170 36 81 17
86 19 93 49 3 11 5 0 4 -24 l-2 -43 -254 -64 c-140 -34 -311 -73 -379 -86
-121 -22 -124 -23 -81 -31 51 -9 155 6 454 65 246 48 232 43 244 76 9 27 9 27
10 -8 1 -41 -7 -54 -34 -58 -23 -3 -109 -26 -215 -57 -41 -12 -120 -30 -175
-40 -97 -17 -236 -51 -165 -40 110 17 192 27 196 23 2 -3 -28 -11 -67 -18 -51
-9 -68 -15 -58 -22 10 -7 6 -8 -13 -5 -16 2 -28 0 -28 -4 0 -12 14 -11 115 6
48 9 89 14 91 12 2 -2 -39 -15 -92 -28 -160 -40 -81 -33 122 11 104 22 213 46
242 52 49 10 52 12 52 42 0 17 5 38 10 46 13 20 1 -129 -12 -150 -6 -11 -8 -7
-3 13 3 15 1 27 -5 27 -6 0 -65 -14 -133 -31 -67 -17 -153 -38 -192 -45 l-70
-14 58 4 c64 5 72 1 25 -13 l-33 -9 30 -2 30 -1 -25 -11 c-14 -6 -50 -17 -80
-24 l-55 -13 90 3 90 3 -85 -29 c-47 -16 -132 -42 -190 -58 -139 -38 -82 -38
84 0 476 110 446 102 446 126 0 13 5 26 11 30 8 5 10 -2 6 -22 -6 -29 -29
-235 -68 -614 -23 -229 -44 -309 -98 -377 -48 -60 -116 -101 -256 -154 -107
-41 -161 -52 -440 -93 -503 -75 -1338 -53 -1785 45 -375 83 -562 189 -634 360
l-27 64 7 -49 c3 -27 15 -79 26 -114 38 -123 162 -212 409 -293 321 -105 763
-154 1394 -153 804 1 1258 71 1544 239 121 71 178 141 206 252 8 32 32 200 55
373 22 173 60 477 85 675 60 469 101 766 122 889 17 90 20 99 46 113 16 8 30
13 32 11 2 -2 -3 -41 -11 -88 -7 -47 -30 -209 -49 -360 -20 -151 -54 -410 -75
-575 -22 -165 -53 -410 -70 -545 -43 -347 -68 -508 -87 -562 -86 -244 -439
-378 -1218 -465 -131 -15 -245 -18 -635 -18 -487 0 -579 5 -885 46 -167 22
-301 52 -450 99 -247 80 -388 177 -458 315 -34 67 -67 294 -202 1385 -47 377
-87 704 -90 728 -4 26 -2 42 4 42 6 0 44 -13 85 -30z m3960 -75 c-25 -33 -27
-75 -3 -75 5 0 9 -4 9 -10 0 -5 -9 -10 -20 -10 -23 0 -27 -28 -5 -36 8 -4 15
-12 15 -20 0 -8 -7 -14 -15 -14 -8 0 -15 -9 -15 -20 0 -11 5 -20 11 -20 6 0 1
-12 -10 -26 -23 -29 -27 -54 -11 -54 7 0 7 -6 0 -19 -16 -31 -12 -51 11 -51
18 0 18 -2 -8 -26 -19 -17 -24 -27 -15 -31 10 -4 10 -8 2 -18 -8 -10 -8 -19 0
-34 8 -16 8 -21 -1 -21 -6 0 -9 -7 -6 -15 4 -8 2 -17 -2 -19 -5 -3 -6 -22 -4
-43 2 -21 -1 -48 -8 -60 -9 -18 -9 -26 1 -38 10 -12 10 -15 -5 -15 -15 0 -16
-2 -4 -17 12 -14 12 -15 0 -9 -10 7 -12 2 -6 -23 4 -20 3 -31 -4 -31 -15 0
-14 -33 1 -48 9 -9 8 -12 -5 -12 -24 0 -21 -14 6 -34 l22 -17 -22 6 c-17 5
-23 2 -23 -9 0 -9 6 -16 13 -16 6 0 4 -5 -5 -11 -21 -12 -23 -40 -6 -57 9 -9
8 -12 -5 -12 -11 0 -17 -8 -17 -25 0 -15 6 -25 14 -25 8 0 18 -5 22 -11 5 -9
-1 -10 -20 -5 -26 7 -27 6 -23 -34 2 -22 0 -40 -4 -40 -4 0 -6 -25 -4 -55 3
-30 1 -55 -4 -55 -11 0 -22 -70 -13 -84 4 -6 7 -23 7 -37 0 -19 -4 -25 -15
-21 -11 4 -10 -1 4 -16 17 -19 17 -22 3 -22 -24 0 -21 -15 6 -28 22 -11 22
-11 1 -11 -25 -1 -37 -24 -21 -40 8 -8 8 -11 -2 -11 -7 0 -10 -4 -7 -9 4 -5 1
-11 -6 -13 -7 -3 -9 -11 -3 -24 12 -28 13 -54 2 -54 -5 0 -7 -6 -4 -14 3 -8 3
-17 -1 -21 -3 -3 -7 -29 -8 -58 -5 -126 -15 -212 -24 -215 -6 -2 -10 -12 -10
-23 0 -23 -38 -107 -53 -116 -6 -4 -8 9 -4 38 3 24 17 139 32 254 164 1316
215 1710 223 1740 5 19 16 31 32 36 39 9 42 1 14 -36z m-887 -121 c-3 -3 -12
-4 -19 -1 -8 3 -5 6 6 6 11 1 17 -2 13 -5z m227 -4 c-28 -4 -66 -12 -85 -18
-19 -6 -70 -18 -114 -27 -44 -8 -90 -18 -102 -20 -31 -7 -29 11 3 31 29 20
179 42 279 42 70 0 70 0 19 -8z m-17 -26 c-3 -3 -12 -4 -19 -1 -8 3 -5 6 6 6
11 1 17 -2 13 -5z m330 -30 c-3 -3 -12 -4 -19 -1 -8 3 -5 6 6 6 11 1 17 -2 13
-5z m-280 -120 c-3 -3 -12 -4 -19 -1 -8 3 -5 6 6 6 11 1 17 -2 13 -5z m-210
-150 c-3 -3 -12 -4 -19 -1 -8 3 -5 6 6 6 11 1 17 -2 13 -5z m-50 -130 c-3 -3
-12 -4 -19 -1 -8 3 -5 6 6 6 11 1 17 -2 13 -5z m130 -360 c-3 -3 -12 -4 -19
-1 -8 3 -5 6 6 6 11 1 17 -2 13 -5z"/>
<path d="M4913 9129 c-388 -13 -870 -63 -1063 -111 -187 -46 -278 -117 -256
-201 10 -43 104 -77 213 -77 60 0 63 1 115 49 60 54 113 85 134 77 24 -9 15
-32 -23 -59 -25 -18 -32 -27 -20 -27 24 0 22 -7 -13 -47 -17 -19 -27 -39 -24
-45 19 -31 -417 27 -515 68 -122 51 -104 138 42 208 89 43 259 99 352 117 39
7 61 15 49 17 -30 4 -344 -45 -439 -70 -165 -42 -265 -111 -265 -181 0 -73 47
-113 167 -146 178 -48 378 -72 993 -123 221 -18 1854 -18 2070 0 85 7 263 22
395 33 342 28 604 72 712 119 120 53 91 196 -52 249 -83 31 -166 50 -287 66
-61 8 -119 15 -127 14 -9 0 39 -19 106 -43 197 -70 268 -129 239 -200 -17 -44
-80 -72 -227 -100 -199 -39 -307 -50 -359 -36 -75 19 -94 30 -125 73 -22 31
-51 52 -108 80 -70 34 -76 40 -67 57 14 26 81 27 183 1 95 -25 143 -49 207
-106 49 -43 53 -45 113 -45 121 0 217 44 217 99 0 64 -114 138 -275 179 -367
92 -1243 139 -2062 111z"/>
<path d="M7755 8741 c-230 -158 -1099 -250 -2360 -251 -417 0 -910 13 -1170
30 -563 38 -1063 131 -1166 217 -16 14 -31 24 -33 22 -2 -2 -7 -81 -11 -175
-7 -168 -7 -172 13 -183 50 -27 369 -79 642 -106 845 -82 2577 -81 3455 1 337
31 654 81 680 105 11 11 8 349 -3 361 -4 3 -25 -6 -47 -21z"/>
<path d="M2716 8232 c-2 -4 -6 -74 -7 -156 -3 -168 -10 -155 91 -180 309 -76
900 -138 1575 -167 348 -14 1599 -14 1955 0 745 31 1360 93 1703 172 l87 21 0
112 c0 154 -8 209 -29 200 -236 -105 -766 -166 -1866 -215 -311 -14 -1683 -7
-2010 10 -743 39 -1333 116 -1462 191 -18 11 -34 16 -37 12z"/>
<path d="M8080 7874 c-82 -26 -371 -73 -595 -98 -635 -71 -1228 -98 -2150 -99
-1197 -1 -2004 56 -2544 179 l-114 26 -33 -38 c-21 -25 -29 -43 -23 -50 12
-14 129 -49 249 -73 363 -73 883 -125 1525 -152 396 -17 1551 -17 1885 -1 749
36 1171 73 1554 137 161 27 363 73 370 84 2 3 -14 27 -37 53 l-42 46 -45 -14z"/>
<path d="M8210 7751 c-24 -14 -238 -60 -424 -91 -368 -61 -795 -98 -1518 -131
-300 -13 -1885 -6 -2153 10 -671 41 -1133 103 -1472 198 l-63 17 -30 -29 c-61
-59 -34 -81 170 -133 342 -89 952 -157 1640 -182 343 -13 1643 -13 1960 0 692
28 1047 58 1460 126 370 60 520 101 520 141 0 11 -15 33 -33 51 -36 35 -36 35
-57 23z"/>
<path d="M3728 7193 c28 -2 76 -2 105 0 28 2 5 3 -53 3 -58 0 -81 -1 -52 -3z"/>
<path d="M4108 7153 c12 -2 30 -2 40 0 9 3 -1 5 -23 4 -22 0 -30 -2 -17 -4z"/>
<path d="M4555 7139 c-27 -3 119 -6 325 -7 206 0 391 3 410 7 41 9 -661 10
-735 0z"/>
<path d="M6008 7063 c12 -2 32 -2 45 0 12 2 2 4 -23 4 -25 0 -35 -2 -22 -4z"/>
<path d="M5883 7053 c15 -2 37 -2 50 0 12 2 0 4 -28 4 -27 0 -38 -2 -22 -4z"/>
<path d="M5717 7043 c18 -2 50 -2 70 0 21 2 7 4 -32 4 -38 0 -55 -2 -38 -4z"/>
<path d="M5118 7033 c18 -2 45 -2 60 0 15 2 0 4 -33 4 -33 0 -45 -2 -27 -4z"/>
<path d="M5900 7029 c-107 -5 -103 -5 60 -6 169 -1 208 2 105 9 -27 2 -102 1
-165 -3z"/>
<path d="M5653 7013 c15 -2 39 -2 55 0 15 2 2 4 -28 4 -30 0 -43 -2 -27 -4z"/>
<path d="M5488 7003 c6 -2 18 -2 25 0 6 3 1 5 -13 5 -14 0 -19 -2 -12 -5z"/>
<path d="M5888 6973 c7 -3 16 -2 19 1 4 3 -2 6 -13 5 -11 0 -14 -3 -6 -6z"/>
<path d="M5788 6943 c12 -2 30 -2 40 0 9 3 -1 5 -23 4 -22 0 -30 -2 -17 -4z"/>
<path d="M5908 6943 c18 -2 45 -2 60 0 15 2 0 4 -33 4 -33 0 -45 -2 -27 -4z"/>
<path d="M5708 6933 c7 -3 16 -2 19 1 4 3 -2 6 -13 5 -11 0 -14 -3 -6 -6z"/>
<path d="M5658 6863 c12 -2 30 -2 40 0 9 3 -1 5 -23 4 -22 0 -30 -2 -17 -4z"/>
<path d="M5823 6853 c15 -2 37 -2 50 0 12 2 0 4 -28 4 -27 0 -38 -2 -22 -4z"/>
<path d="M5780 6790 c-54 -7 -54 -7 -10 -7 25 -1 72 3 105 7 l60 7 -50 0 c-27
0 -75 -3 -105 -7z"/>
<path d="M5658 6753 c7 -3 16 -2 19 1 4 3 -2 6 -13 5 -11 0 -14 -3 -6 -6z"/>
<path d="M7345 6745 c-5 -2 -98 -18 -205 -35 -107 -16 -310 -51 -450 -75 -140
-25 -329 -55 -420 -66 -172 -21 -286 -45 -155 -32 39 3 97 7 130 8 100 3 463
45 580 67 61 11 207 35 325 52 l215 31 3 28 c3 26 -1 30 -23 22z"/>
<path d="M7160 6629 c-102 -16 -277 -47 -390 -69 -113 -22 -263 -49 -335 -60
-71 -11 -163 -26 -203 -33 -40 -8 -85 -12 -100 -10 -23 4 -25 3 -9 -7 13 -8
37 -8 92 0 41 6 85 8 96 5 13 -4 19 -3 16 3 -4 5 24 12 69 16 42 4 142 18 223
31 157 27 189 30 156 14 -16 -7 -14 -8 10 -4 17 2 89 12 160 20 72 9 189 25
260 35 72 11 136 20 143 20 7 0 12 14 12 35 0 19 -3 35 -7 34 -5 0 -91 -14
-193 -30z"/>
<path d="M5918 6613 c6 -2 18 -2 25 0 6 3 1 5 -13 5 -14 0 -19 -2 -12 -5z"/>
<path d="M7200 6534 c-319 -42 -662 -94 -725 -111 -33 -8 -91 -22 -129 -29
-163 -33 -55 -28 189 8 77 11 183 22 235 23 52 1 122 5 155 8 l60 6 -60 -14
c-33 -7 -130 -27 -215 -44 -114 -22 -138 -29 -90 -26 45 3 59 1 45 -5 -47 -21
230 30 395 73 52 14 136 31 187 38 96 13 102 18 103 72 0 20 -4 20 -150 1z
m-603 -110 c-3 -3 -12 -4 -19 -1 -8 3 -5 6 6 6 11 1 17 -2 13 -5z"/>
<path d="M5993 6523 c9 -2 25 -2 35 0 9 3 1 5 -18 5 -19 0 -27 -2 -17 -5z"/>
<path d="M6078 6443 c7 -3 16 -2 19 1 4 3 -2 6 -13 5 -11 0 -14 -3 -6 -6z"/>
<path d="M7150 6394 c-383 -81 -433 -93 -405 -94 24 -2 18 -5 -28 -17 -32 -9
-56 -17 -54 -20 6 -5 390 51 532 78 130 25 145 32 145 64 0 31 6 31 -190 -11z"/>
<path d="M6698 6403 c6 -2 18 -2 25 0 6 3 1 5 -13 5 -14 0 -19 -2 -12 -5z"/>
<path d="M6638 6393 c7 -3 16 -2 19 1 4 3 -2 6 -13 5 -11 0 -14 -3 -6 -6z"/>
<path d="M6608 6333 c7 -3 16 -2 19 1 4 3 -2 6 -13 5 -11 0 -14 -3 -6 -6z"/>
<path d="M6538 6323 c6 -2 18 -2 25 0 6 3 1 5 -13 5 -14 0 -19 -2 -12 -5z"/>
<path d="M7210 6304 c-58 -13 -168 -38 -245 -54 -77 -16 -165 -36 -195 -44
-30 -7 -112 -26 -183 -42 -84 -18 -123 -31 -115 -37 8 -5 0 -7 -22 -3 -25 4
-31 3 -20 -4 13 -8 12 -10 -4 -10 -11 0 -16 -3 -13 -7 4 -3 71 6 149 20 79 15
231 41 338 58 107 17 247 41 310 54 l115 22 3 36 c2 21 0 37 -5 36 -4 0 -55
-11 -113 -25z m-533 -140 c-3 -3 -12 -4 -19 -1 -8 3 -5 6 6 6 11 1 17 -2 13
-5z m-94 -21 c-7 -2 -19 -2 -25 0 -7 3 -2 5 12 5 14 0 19 -2 13 -5z"/>
<path d="M6488 6313 c6 -2 18 -2 25 0 6 3 1 5 -13 5 -14 0 -19 -2 -12 -5z"/>
<path d="M6390 6300 c-34 -7 -34 -7 -5 -8 17 0 44 4 60 8 27 7 27 8 5 8 -14
-1 -41 -4 -60 -8z"/>
<path d="M6303 6283 c9 -2 25 -2 35 0 9 3 1 5 -18 5 -19 0 -27 -2 -17 -5z"/>
<path d="M6228 6273 c7 -3 16 -2 19 1 4 3 -2 6 -13 5 -11 0 -14 -3 -6 -6z"/>
<path d="M6580 6260 c-20 -6 -21 -8 -5 -8 11 0 29 3 40 8 25 11 -1 11 -35 0z"/>
<path d="M6498 6243 c6 -2 18 -2 25 0 6 3 1 5 -13 5 -14 0 -19 -2 -12 -5z"/>
<path d="M6408 6223 c7 -3 16 -2 19 1 4 3 -2 6 -13 5 -11 0 -14 -3 -6 -6z"/>
<path d="M7120 6174 c-85 -18 -224 -45 -309 -59 -85 -14 -157 -28 -160 -30 -2
-3 25 -3 60 0 50 4 34 -1 -76 -25 -77 -17 -155 -31 -173 -32 -18 -1 -28 -4
-22 -8 6 -4 61 2 123 12 117 18 159 21 117 8 -37 -12 -11 -12 51 0 30 6 117
20 193 31 203 29 369 67 384 86 6 9 12 25 12 35 0 24 -13 23 -200 -18z m-313
-80 c-3 -3 -12 -4 -19 -1 -8 3 -5 6 6 6 11 1 17 -2 13 -5z"/>
<path d="M6338 6103 c7 -3 16 -2 19 1 4 3 -2 6 -13 5 -11 0 -14 -3 -6 -6z"/>
<path d="M6433 5903 c9 -2 25 -2 35 0 9 3 1 5 -18 5 -19 0 -27 -2 -17 -5z"/>
<path d="M7170 5850 c-66 -17 -312 -62 -395 -73 -23 -3 -20 -5 15 -7 l45 -2
-40 -8 c-22 -5 -83 -12 -135 -17 -87 -7 -91 -8 -45 -13 l50 -6 -55 -11 c-52
-11 -49 -11 45 -7 117 6 264 25 464 59 79 14 148 25 153 25 4 0 8 18 8 40 0
47 -1 47 -110 20z"/>
<path d="M7170 5728 c-52 -9 -169 -26 -260 -38 -197 -25 -221 -32 -85 -24 55
4 97 4 94 0 -3 -3 -88 -15 -190 -26 -219 -24 -247 -30 -119 -25 57 2 83 1 65
-4 -23 -6 -26 -9 -14 -15 29 -13 588 60 606 78 3 2 3 19 1 38 l-3 33 -95 -17z"/>
<path d="M6498 5703 c12 -2 30 -2 40 0 9 3 -1 5 -23 4 -22 0 -30 -2 -17 -4z"/>
<path d="M7249 5625 c-9 -8 -282 -53 -429 -70 -139 -16 -176 -23 -134 -26 10
-1 -17 -7 -61 -14 l-80 -12 75 -3 75 -3 -55 -7 -55 -7 50 -1 c82 -2 250 16
410 43 83 14 165 28 183 31 29 4 32 8 32 39 0 34 -2 40 -11 30z m-421 -122
c-10 -2 -28 -2 -40 0 -13 2 -5 4 17 4 22 1 32 -1 23 -4z"/>
<path d="M5280 5774 c-14 -2 -56 -9 -95 -15 -244 -39 -509 -175 -701 -361
-319 -309 -439 -798 -314 -1283 68 -263 177 -459 359 -648 123 -127 204 -191
321 -251 187 -96 338 -131 570 -131 141 0 178 4 255 24 135 35 280 94 374 152
112 69 288 246 375 377 331 497 349 1107 49 1577 -56 87 -234 265 -330 328
-151 100 -344 181 -507 212 -80 16 -307 28 -356 19z m140 -205 c0 -40 44 -110
127 -201 153 -168 292 -387 339 -533 36 -112 39 -232 5 -295 -13 -25 -33 -55
-44 -68 -14 -15 12 -5 89 34 119 62 192 112 221 153 23 31 53 115 53 148 0 14
4 21 10 18 6 -4 10 -98 10 -248 0 -214 -2 -251 -21 -317 -23 -85 -67 -160
-114 -196 -33 -25 -194 -89 -202 -80 -3 2 41 35 97 72 104 69 131 95 176 172
34 57 25 53 -22 -9 -32 -42 -121 -112 -194 -154 -13 -7 -13 -5 1 11 8 10 35
44 60 74 61 75 149 199 156 219 3 9 -8 -2 -23 -25 -16 -22 -46 -61 -67 -85
l-38 -44 32 70 c75 164 99 221 98 235 0 8 -12 -10 -25 -39 -17 -36 -28 -51
-33 -43 -5 8 -15 -12 -25 -52 -11 -40 -44 -107 -84 -175 -70 -114 -165 -231
-178 -219 -7 8 17 100 62 232 13 39 22 72 19 74 -14 15 -96 -222 -98 -285 -1
-25 -12 -45 -45 -81 -28 -29 -42 -39 -38 -26 3 11 10 65 16 120 5 54 14 115
20 134 14 49 12 70 -4 40 -19 -35 -34 -111 -42 -210 -3 -47 -8 -93 -9 -102 -4
-20 -51 -82 -85 -113 l-23 -20 6 20 c3 11 8 65 12 120 4 55 13 128 21 163 17
78 17 84 -2 49 -23 -43 -44 -169 -44 -270 0 -87 -2 -94 -32 -139 -18 -27 -36
-48 -39 -48 -4 0 -11 40 -18 88 -28 219 -4 340 90 446 16 19 29 38 29 42 1 13
99 82 211 148 53 31 106 67 118 80 22 24 26 25 -299 -132 -69 -33 -144 -76
-166 -96 -50 -43 -54 -38 -54 67 0 101 28 152 167 300 116 122 156 186 169
266 9 58 -2 51 -20 -13 -19 -65 -83 -153 -165 -224 -68 -59 -116 -123 -142
-191 l-18 -46 0 35 c-1 19 2 66 6 103 l6 68 103 85 c88 72 107 93 133 147 30
63 53 166 34 154 -6 -4 -13 -22 -16 -42 -14 -84 -63 -147 -215 -273 l-52 -43
5 61 4 62 84 81 c95 94 120 138 123 222 3 58 3 59 -5 15 -15 -79 -39 -120
-118 -201 -84 -86 -98 -88 -87 -9 5 34 17 56 48 90 65 70 87 113 92 177 l4 58
-14 -49 c-8 -27 -25 -63 -38 -81 -30 -41 -86 -105 -93 -105 -3 0 -5 23 -5 51
0 45 5 57 36 91 46 51 74 112 74 163 -1 39 -1 39 -23 -25 -12 -36 -35 -82 -52
-103 l-30 -37 -5 170 c-3 93 -8 172 -11 175 -7 6 -19 -161 -19 -262 0 -40 -2
-73 -5 -73 -20 0 -74 89 -100 165 -5 12 -9 15 -12 8 -10 -27 28 -122 67 -169
33 -40 40 -56 40 -90 0 -24 3 -51 6 -61 3 -10 -19 8 -49 39 -52 56 -77 99 -93
163 l-8 30 -4 -28 c-7 -51 26 -123 89 -192 58 -64 59 -67 59 -122 l0 -57 -71
69 c-92 91 -109 116 -131 189 l-18 61 4 -56 c6 -78 25 -110 128 -215 l89 -91
-3 -52 -3 -51 -83 66 c-101 79 -168 166 -178 229 -3 25 -11 45 -16 45 -15 0 2
-79 28 -132 33 -65 72 -107 170 -183 l84 -66 0 -77 0 -77 -29 50 c-16 28 -65
83 -110 123 -107 97 -149 150 -178 225 -24 62 -24 62 -18 17 11 -80 40 -125
158 -247 142 -148 165 -185 177 -294 16 -139 18 -135 -37 -93 -54 41 -119 75
-257 134 -55 23 -109 48 -120 55 -66 40 -154 82 -150 72 10 -24 129 -109 208
-149 195 -98 284 -177 311 -278 l6 -25 -19 25 -20 24 14 -54 c14 -56 17 -211
5 -330 l-6 -65 -44 56 -44 57 2 78 c2 91 -19 213 -49 280 -11 26 -22 45 -24
43 -3 -2 4 -40 15 -84 10 -44 21 -116 24 -160 3 -44 8 -91 10 -105 3 -20 -37
14 -175 150 -98 96 -192 197 -209 224 -30 48 -31 55 -32 160 -1 121 -16 105
-18 -19 0 -39 -5 -65 -10 -60 -19 22 -61 148 -61 185 0 23 -5 40 -11 40 -7 0
-10 -12 -7 -30 3 -16 1 -30 -3 -30 -13 0 -2 -38 26 -88 l25 -47 -45 50 c-65
73 -55 49 15 -35 33 -39 60 -76 60 -81 0 -5 0 -12 0 -16 1 -5 15 -24 33 -43
59 -63 82 -93 67 -85 -41 23 -168 128 -193 160 -16 20 -32 34 -35 31 -3 -4 12
-24 33 -46 22 -22 35 -40 29 -40 -5 0 -15 5 -22 12 -8 8 -12 8 -12 1 0 -18 58
-64 168 -132 56 -35 101 -66 99 -68 -7 -6 -114 35 -163 62 -95 52 -144 123
-169 242 -17 80 -21 533 -5 533 6 0 10 -11 10 -25 0 -38 29 -116 62 -162 34
-50 89 -84 197 -123 43 -15 84 -31 90 -34 16 -10 13 10 -3 23 -43 36 -59 195
-31 306 38 147 196 396 378 593 54 59 80 96 88 125 6 23 13 48 15 55 6 20 24
14 24 -9z m-940 -301 c0 -7 -23 -53 -51 -103 -68 -122 -132 -271 -160 -380
-21 -80 -24 -112 -24 -285 0 -149 4 -214 18 -277 55 -256 179 -501 340 -670
45 -47 67 -78 63 -88 -21 -55 -146 47 -252 206 -147 221 -228 464 -249 749
-13 164 30 417 98 576 42 99 130 248 160 269 26 18 57 20 57 3z m1949 -61 c87
-118 164 -314 196 -501 19 -115 19 -335 0 -449 -44 -250 -137 -466 -281 -655
-53 -71 -144 -152 -170 -152 -36 0 -24 33 40 106 166 190 270 397 328 655 19
86 23 133 23 269 0 100 -5 193 -14 235 -22 111 -79 273 -128 365 -94 172 -94
172 -82 186 16 20 42 2 88 -59z m-851 -1014 c-20 -21 -50 -60 -68 -88 -19 -29
-29 -40 -25 -25 12 41 44 87 83 119 50 41 53 39 10 -6z m-169 -183 c0 -41 -4
-84 -9 -95 -6 -13 -9 19 -9 90 -1 74 2 105 9 95 5 -8 9 -49 9 -90z m-823 25
c52 -20 142 -47 200 -61 58 -14 120 -34 139 -46 36 -20 47 -35 20 -24 -22 8
-18 -2 6 -15 15 -8 19 -8 15 0 -18 29 16 6 58 -39 43 -46 62 -75 34 -52 -19
15 -160 58 -303 92 -69 16 -139 37 -156 45 -37 20 -49 14 -17 -7 43 -28 163
-66 305 -96 78 -17 156 -38 174 -48 77 -39 213 -205 224 -271 4 -24 5 -43 3
-43 -3 0 -25 20 -50 44 -51 48 -79 59 -258 96 -115 24 -189 53 -259 103 -68
49 -81 53 -36 12 96 -89 171 -124 324 -156 112 -23 218 -56 227 -71 22 -34
-326 40 -433 92 -108 53 -206 157 -272 288 -47 92 -70 192 -44 192 3 0 48 -16
99 -35z m1754 15 c0 -32 -39 -139 -76 -211 -64 -122 -197 -235 -327 -278 -63
-21 -339 -81 -346 -76 -8 8 13 26 43 39 18 7 93 28 167 45 160 38 235 72 309
141 l55 52 -51 -36 c-84 -58 -171 -93 -304 -121 -156 -32 -223 -62 -251 -109
-12 -20 -25 -36 -29 -36 -5 0 -15 -3 -24 -6 -18 -7 36 106 76 158 31 41 147
169 150 166 2 -1 13 4 25 11 13 6 103 29 200 51 168 38 262 71 270 97 2 6 -17
0 -43 -13 -26 -13 -63 -26 -83 -30 -78 -13 -327 -76 -338 -86 -8 -7 -13 -7
-13 -1 0 13 99 106 130 123 13 7 89 30 169 50 80 21 175 49 211 63 80 32 80
32 80 7z m-973 -382 c-3 -8 -6 -5 -6 6 -1 11 2 17 5 13 3 -3 4 -12 1 -19z
m179 -292 c-4 -19 -11 -38 -16 -41 -5 -3 -5 8 1 27 5 18 6 42 3 53 -5 16 -4
17 6 8 8 -7 10 -24 6 -47z m-117 -13 c-12 -61 -19 -66 -19 -13 0 42 0 42 -31
36 -17 -3 -42 -6 -56 -6 -15 0 -27 -8 -33 -22 -9 -23 -9 -23 -9 -2 -1 36 25
47 125 52 l31 2 -8 -47z"/>
<path d="M5776 4714 c-14 -37 -42 -71 -110 -139 -87 -85 -76 -86 26 -2 48 38
115 152 106 178 -2 7 -12 -10 -22 -37z"/>
<path d="M5010 4744 c0 -20 27 -78 57 -119 26 -35 130 -125 145 -125 3 0 -29
34 -72 75 -45 45 -88 97 -103 128 -14 28 -26 47 -27 41z"/>
<path d="M4960 4623 c0 -28 42 -106 81 -148 23 -25 70 -61 103 -79 182 -99
220 -118 204 -100 -10 11 -69 48 -131 83 -126 69 -180 118 -226 201 -17 30
-31 50 -31 43z"/>
<path d="M5821 4604 c-2 -30 -52 -104 -98 -146 -23 -20 -81 -55 -129 -78 -89
-42 -149 -79 -141 -86 9 -9 249 120 290 156 49 43 91 120 84 154 -4 20 -4 20
-6 0z"/>
<path d="M4650 4455 c0 -5 5 -17 10 -25 5 -8 10 -10 10 -5 0 6 -5 17 -10 25
-5 8 -10 11 -10 5z"/>
<path d="M6007 4412 c-3 -16 -8 -65 -12 -108 -4 -58 -3 -73 5 -56 11 26 26
192 18 192 -3 0 -8 -13 -11 -28z"/>
<path d="M6166 4310 c-30 -45 -35 -64 -7 -29 21 27 44 69 38 69 -3 0 -16 -18
-31 -40z"/>
<path d="M4626 4308 c22 -43 62 -86 99 -105 22 -12 17 -4 -21 30 -28 26 -57
60 -64 77 -7 16 -16 30 -21 30 -5 0 -2 -15 7 -32z"/>
<path d="M4810 4272 c0 -18 4 -32 9 -32 5 0 7 12 5 27 -7 39 -14 42 -14 5z"/>
<path d="M4903 4268 c4 -10 18 -57 32 -105 33 -112 45 -143 56 -143 14 0 -61
235 -82 254 -9 8 -10 7 -6 -6z"/>
<path d="M6106 4211 l-30 -36 34 32 c19 18 32 34 29 36 -2 2 -17 -12 -33 -32z"/>
<path d="M5030 4204 c0 -3 6 -32 14 -63 8 -31 20 -91 25 -134 10 -69 27 -125
36 -115 8 9 -26 210 -45 261 -19 50 -30 69 -30 51z"/>
<path d="M4736 3780 c14 -12 144 -57 233 -80 86 -22 110 -25 71 -8 -44 19
-313 97 -304 88z"/>
<path d="M5853 3889 c-71 -54 -67 -60 5 -8 71 52 67 49 56 49 -5 0 -33 -18
-61 -41z"/>
<path d="M5897 3733 c-77 -24 -136 -47 -133 -50 7 -7 211 54 255 77 52 28 33
23 -122 -27z"/>
<path d="M6713 5363 c9 -2 25 -2 35 0 9 3 1 5 -18 5 -19 0 -27 -2 -17 -5z"/>
<path d="M6348 3093 c6 -2 18 -2 25 0 6 3 1 5 -13 5 -14 0 -19 -2 -12 -5z"/>
<path d="M6453 3083 c9 -2 25 -2 35 0 9 3 1 5 -18 5 -19 0 -27 -2 -17 -5z"/>
<path d="M6388 3073 c6 -2 18 -2 25 0 6 3 1 5 -13 5 -14 0 -19 -2 -12 -5z"/>
<path d="M6538 3043 c6 -2 18 -2 25 0 6 3 1 5 -13 5 -14 0 -19 -2 -12 -5z"/>
<path d="M6418 3023 c7 -3 16 -2 19 1 4 3 -2 6 -13 5 -11 0 -14 -3 -6 -6z"/>
<path d="M6333 3013 c9 -2 25 -2 35 0 9 3 1 5 -18 5 -19 0 -27 -2 -17 -5z"/>
<path d="M6273 3003 c9 -2 23 -2 30 0 6 3 -1 5 -18 5 -16 0 -22 -2 -12 -5z"/>
<path d="M6218 2993 c6 -2 18 -2 25 0 6 3 1 5 -13 5 -14 0 -19 -2 -12 -5z"/>
<path d="M6318 2973 c7 -3 16 -2 19 1 4 3 -2 6 -13 5 -11 0 -14 -3 -6 -6z"/>
<path d="M6313 2933 c9 -2 23 -2 30 0 6 3 -1 5 -18 5 -16 0 -22 -2 -12 -5z"/>
<path d="M6338 2893 c7 -3 16 -2 19 1 4 3 -2 6 -13 5 -11 0 -14 -3 -6 -6z"/>
<path d="M6198 2873 c7 -3 16 -2 19 1 4 3 -2 6 -13 5 -11 0 -14 -3 -6 -6z"/>
<path d="M6368 2813 c7 -3 16 -2 19 1 4 3 -2 6 -13 5 -11 0 -14 -3 -6 -6z"/>
<path d="M6318 2803 c7 -3 16 -2 19 1 4 3 -2 6 -13 5 -11 0 -14 -3 -6 -6z"/>
<path d="M5188 2793 c7 -3 16 -2 19 1 4 3 -2 6 -13 5 -11 0 -14 -3 -6 -6z"/>
<path d="M6083 2673 c9 -2 23 -2 30 0 6 3 -1 5 -18 5 -16 0 -22 -2 -12 -5z"/>
<path d="M5928 2553 c7 -3 16 -2 19 1 4 3 -2 6 -13 5 -11 0 -14 -3 -6 -6z"/>
<path d="M6208 2413 c7 -3 16 -2 19 1 4 3 -2 6 -13 5 -11 0 -14 -3 -6 -6z"/>
<path d="M6148 2403 c7 -3 16 -2 19 1 4 3 -2 6 -13 5 -11 0 -14 -3 -6 -6z"/>
<path d="M6268 2393 c7 -3 16 -2 19 1 4 3 -2 6 -13 5 -11 0 -14 -3 -6 -6z"/>
<path d="M6268 2353 c6 -2 18 -2 25 0 6 3 1 5 -13 5 -14 0 -19 -2 -12 -5z"/>
<path d="M6295 2330 l-30 -8 30 0 c17 0 39 3 50 8 l20 9 -20 -1 c-11 0 -33 -4
-50 -8z"/>
<path d="M6343 2293 c9 -2 23 -2 30 0 6 3 -1 5 -18 5 -16 0 -22 -2 -12 -5z"/>
<path d="M6278 2283 c6 -2 18 -2 25 0 6 3 1 5 -13 5 -14 0 -19 -2 -12 -5z"/>
<path d="M6193 2273 c9 -2 25 -2 35 0 9 3 1 5 -18 5 -19 0 -27 -2 -17 -5z"/>
<path d="M6453 2273 c9 -2 23 -2 30 0 6 3 -1 5 -18 5 -16 0 -22 -2 -12 -5z"/>
<path d="M6353 2263 c9 -2 25 -2 35 0 9 3 1 5 -18 5 -19 0 -27 -2 -17 -5z"/>
<path d="M6293 2253 c9 -2 23 -2 30 0 6 3 -1 5 -18 5 -16 0 -22 -2 -12 -5z"/>
<path d="M6508 2253 c7 -3 16 -2 19 1 4 3 -2 6 -13 5 -11 0 -14 -3 -6 -6z"/>
<path d="M6458 2243 c7 -3 16 -2 19 1 4 3 -2 6 -13 5 -11 0 -14 -3 -6 -6z"/>
<path d="M6408 2233 c7 -3 16 -2 19 1 4 3 -2 6 -13 5 -11 0 -14 -3 -6 -6z"/>
<path d="M6398 2203 c6 -2 18 -2 25 0 6 3 1 5 -13 5 -14 0 -19 -2 -12 -5z"/>
<path d="M6338 2193 c7 -3 16 -2 19 1 4 3 -2 6 -13 5 -11 0 -14 -3 -6 -6z"/>
<path d="M6795 2164 c-27 -8 -92 -29 -143 -45 -99 -32 -299 -89 -417 -119 -38
-10 -61 -18 -49 -19 29 -1 114 15 314 60 334 76 370 88 370 125 0 17 -11 17
-75 -2z"/>
<path d="M6705 2040 c-82 -25 -253 -70 -379 -100 -126 -30 -221 -57 -211 -58
32 -7 178 19 458 80 257 57 278 63 283 84 3 13 4 27 2 32 -1 4 -70 -13 -153
-38z"/>
<path d="M6735 1953 c-153 -46 -452 -121 -516 -129 -95 -12 -91 -25 6 -19 105
8 281 41 450 86 66 17 130 34 143 37 19 4 43 47 31 56 -2 1 -53 -13 -114 -31z"/>
<path d="M6138 1973 c7 -3 16 -2 19 1 4 3 -2 6 -13 5 -11 0 -14 -3 -6 -6z"/>
<path d="M6799 1886 c-13 -14 -395 -120 -504 -141 -189 -36 -218 -46 -120 -39
102 7 212 26 405 70 227 53 259 65 260 102 0 11 -31 17 -41 8z"/>
<path d="M6750 1771 c-199 -55 -362 -93 -495 -116 -82 -14 -163 -30 -180 -35
-29 -8 -28 -8 14 -9 93 -2 505 70 670 117 53 15 65 22 66 40 2 26 7 26 -75 3z"/>
<path d="M6785 1693 c-11 -3 -74 -22 -140 -43 -121 -39 -212 -59 -362 -81 -45
-7 -80 -16 -78 -20 4 -6 -32 -14 -160 -33 -16 -3 17 -2 74 0 132 6 357 43 534
88 145 37 167 47 167 77 0 20 -1 20 -35 12z"/>
<path d="M6695 1573 c-183 -62 -369 -102 -585 -128 -30 -3 -80 -12 -110 -19
-52 -13 -48 -13 75 -9 190 6 466 55 657 114 63 20 77 33 78 72 0 9 0 10 -115
-30z"/>
<path d="M3637 1509 c7 -7 15 -10 18 -7 3 3 -2 9 -12 12 -14 6 -15 5 -6 -5z"/>
<path d="M6740 1499 c-67 -28 -375 -111 -455 -124 -84 -13 -219 -26 -475 -44
-98 -8 -93 -8 80 -9 102 0 221 4 265 9 52 6 81 5 83 -1 5 -14 45 -12 126 5 38
8 71 13 74 11 11 -12 -141 -42 -367 -71 -182 -25 -230 -33 -166 -31 63 3 79 2
55 -4 -34 -9 -34 -9 5 -4 22 3 67 7 100 9 47 3 53 2 30 -5 -22 -7 -8 -8 48 -5
44 2 77 2 75 0 -1 -1 -61 -14 -133 -28 -149 -30 -299 -42 -685 -58 -151 -6
-276 -12 -278 -14 -10 -9 414 -17 658 -12 365 8 497 19 667 57 180 39 237 68
281 140 31 53 44 87 58 158 7 35 -1 39 -46 21z m-433 -155 c-3 -3 -12 -4 -19
-1 -8 3 -5 6 6 6 11 1 17 -2 13 -5z m-119 -91 c-10 -2 -28 -2 -40 0 -13 2 -5
4 17 4 22 1 32 -1 23 -4z"/>
<path d="M3647 1449 c7 -7 15 -10 18 -7 3 3 -2 9 -12 12 -14 6 -15 5 -6 -5z"/>
<path d="M6195 1320 c-18 -8 -17 -9 8 -9 15 -1 27 4 27 9 0 12 -8 12 -35 0z"/>
<path d="M6118 1303 c7 -3 16 -2 19 1 4 3 -2 6 -13 5 -11 0 -14 -3 -6 -6z"/>
<path d="M5675 1240 l-80 -6 90 -2 c50 -1 97 3 105 8 17 11 21 11 -115 0z"/>
<path d="M4148 1193 c7 -3 16 -2 19 1 4 3 -2 6 -13 5 -11 0 -14 -3 -6 -6z"/>
<path d="M4198 1183 c7 -3 16 -2 19 1 4 3 -2 6 -13 5 -11 0 -14 -3 -6 -6z"/>
<path d="M4248 1173 c7 -3 16 -2 19 1 4 3 -2 6 -13 5 -11 0 -14 -3 -6 -6z"/>
<path d="M6238 1073 c7 -3 16 -2 19 1 4 3 -2 6 -13 5 -11 0 -14 -3 -6 -6z"/>
<path d="M5810 1054 c-96 -7 -301 -17 -455 -22 l-280 -10 345 3 c407 4 442 6
590 34 41 8 42 8 10 8 -19 0 -114 -6 -210 -13z"/>
<path d="M6178 1063 c7 -3 16 -2 19 1 4 3 -2 6 -13 5 -11 0 -14 -3 -6 -6z"/>
</g>
</svg>
